# xmcd
#
# Track frame offsets: 
#        150
#        12053
#        25672
#        40431
#        51521
#        65839
#        78484
#        90716
#        104147
#        115628
#        126731
#
# Disc length: 1864 seconds
#
# Revision: 0
# Processed by: cddbd v1.5.2PL0 Copyright (c) Steve Scherf et al.
# Submitted via: ExactAudioCopy v0.95b3
#
DISCID=9b07460b
DTITLE=Brenda Lee  - New Sunrise
DYEAR=1900
DGENRE=
TTITLE0=Sunday Sunrise
TTITLE1=My Love
TTITLE2=You Are The Sunshine Of My Life
TTITLE3=Must I Believe
TTITLE4=Wrong Ideas
TTITLE5=We Had It All
TTITLE6=Everybody's Had The Blues
TTITLE7=Why Me
TTITLE8=Slippin' Away
TTITLE9=You're My Man
TTITLE10=Something For A Rainy Day
EXTD=
EXTT0=
EXTT1=
EXTT2=
EXTT3=
EXTT4=
EXTT5=
EXTT6=
EXTT7=
EXTT8=
EXTT9=
EXTT10=
PLAYORDER=
